<svg width="21" height="12" viewBox="0 0 21 12" fill="none" xmlns="http://www.w3.org/2000/svg">
<path d="M0.744 5.572C0.744 4.196 0.968 3.124 1.416 2.356C1.864 1.58 2.648 1.192 3.768 1.192C4.88 1.192 5.66 1.58 6.108 2.356C6.556 3.124 6.78 4.196 6.78 5.572C6.78 6.972 6.556 8.06 6.108 8.836C5.66 9.612 4.88 10 3.768 10C2.648 10 1.864 9.612 1.416 8.836C0.968 8.06 0.744 6.972 0.744 5.572ZM5.7 5.572C5.7 4.876 5.652 4.288 5.556 3.808C5.468 3.32 5.28 2.928 4.992 2.632C4.712 2.336 4.304 2.188 3.768 2.188C3.224 2.188 2.808 2.336 2.52 2.632C2.24 2.928 2.052 3.32 1.956 3.808C1.868 4.288 1.824 4.876 1.824 5.572C1.824 6.292 1.868 6.896 1.956 7.384C2.052 7.872 2.24 8.264 2.52 8.56C2.808 8.856 3.224 9.004 3.768 9.004C4.304 9.004 4.712 8.856 4.992 8.56C5.28 8.264 5.468 7.872 5.556 7.384C5.652 6.896 5.7 6.292 5.7 5.572ZM9.58716 8.488L8.24316 11.716H7.51116L8.38716 8.488H9.58716ZM12.2421 5.488C11.7941 5.312 11.4501 5.056 11.2101 4.72C10.9701 4.384 10.8501 3.976 10.8501 3.496C10.8501 3.064 10.9581 2.676 11.1741 2.332C11.3901 1.98 11.7101 1.704 12.1341 1.504C12.5661 1.296 13.0861 1.192 13.6941 1.192C14.3021 1.192 14.8181 1.296 15.2421 1.504C15.6741 1.704 15.9981 1.98 16.2141 2.332C16.4381 2.676 16.5501 3.064 16.5501 3.496C16.5501 3.96 16.4261 4.368 16.1781 4.72C15.9301 5.064 15.5901 5.32 15.1581 5.488C15.6541 5.64 16.0461 5.908 16.3341 6.292C16.6301 6.668 16.7781 7.124 16.7781 7.66C16.7781 8.18 16.6501 8.636 16.3941 9.028C16.1381 9.412 15.7741 9.712 15.3021 9.928C14.8381 10.136 14.3021 10.24 13.6941 10.24C13.0861 10.24 12.5501 10.136 12.0861 9.928C11.6301 9.712 11.2741 9.412 11.0181 9.028C10.7621 8.636 10.6341 8.18 10.6341 7.66C10.6341 7.124 10.7781 6.664 11.0661 6.28C11.3541 5.896 11.7461 5.632 12.2421 5.488ZM15.4941 3.628C15.4941 3.14 15.3341 2.764 15.0141 2.5C14.6941 2.236 14.2541 2.104 13.6941 2.104C13.1421 2.104 12.7061 2.236 12.3861 2.5C12.0661 2.764 11.9061 3.144 11.9061 3.64C11.9061 4.088 12.0701 4.448 12.3981 4.72C12.7341 4.992 13.1661 5.128 13.6941 5.128C14.2301 5.128 14.6621 4.992 14.9901 4.72C15.3261 4.44 15.4941 4.076 15.4941 3.628ZM13.6941 5.968C13.1021 5.968 12.6181 6.108 12.2421 6.388C11.8661 6.66 11.6781 7.072 11.6781 7.624C11.6781 8.136 11.8581 8.548 12.2181 8.86C12.5861 9.172 13.0781 9.328 13.6941 9.328C14.3101 9.328 14.7981 9.172 15.1581 8.86C15.5181 8.548 15.6981 8.136 15.6981 7.624C15.6981 7.088 15.5141 6.68 15.1461 6.4C14.7781 6.112 14.2941 5.968 13.6941 5.968ZM18.9604 0.447999L18.8164 2.836H18.0604L17.9044 0.447999H18.9604ZM20.8705 0.447999L20.7265 2.836H19.9705L19.8145 0.447999H20.8705Z" fill="white"/>
</svg>
