<svg width="27" height="15" viewBox="0 0 27 15" fill="none" xmlns="http://www.w3.org/2000/svg">
<path d="M3.6 6.324H2.22V12H1.128V6.324H0.276V5.424H1.128V4.956C1.128 4.22 1.316 3.684 1.692 3.348C2.076 3.004 2.688 2.832 3.528 2.832V3.744C3.048 3.744 2.708 3.84 2.508 4.032C2.316 4.216 2.22 4.524 2.22 4.956V5.424H3.6V6.324ZM8.95322 0.696L5.66522 14.04H4.58522L7.86122 0.696H8.95322ZM15.9323 4.272H11.7203V7.008C11.9043 6.752 12.1763 6.544 12.5363 6.384C12.8963 6.216 13.2843 6.132 13.7003 6.132C14.3643 6.132 14.9043 6.272 15.3203 6.552C15.7363 6.824 16.0323 7.18 16.2083 7.62C16.3923 8.052 16.4843 8.512 16.4843 9C16.4843 9.576 16.3763 10.092 16.1603 10.548C15.9443 11.004 15.6123 11.364 15.1643 11.628C14.7243 11.892 14.1763 12.024 13.5203 12.024C12.6803 12.024 12.0003 11.808 11.4803 11.376C10.9603 10.944 10.6443 10.368 10.5323 9.648H11.6003C11.7043 10.104 11.9243 10.46 12.2603 10.716C12.5963 10.972 13.0203 11.1 13.5323 11.1C14.1643 11.1 14.6403 10.912 14.9603 10.536C15.2803 10.152 15.4403 9.648 15.4403 9.024C15.4403 8.4 15.2803 7.92 14.9603 7.584C14.6403 7.24 14.1683 7.068 13.5443 7.068C13.1203 7.068 12.7483 7.172 12.4283 7.38C12.1163 7.58 11.8883 7.856 11.7443 8.208H10.7123V3.312H15.9323V4.272ZM19.2434 10.488L17.8994 13.716H17.1674L18.0434 10.488H19.2434ZM25.1503 5.388C24.9743 4.5 24.4263 4.056 23.5063 4.056C22.7943 4.056 22.2623 4.332 21.9103 4.884C21.5583 5.428 21.3863 6.328 21.3943 7.584C21.5783 7.168 21.8823 6.844 22.3063 6.612C22.7383 6.372 23.2183 6.252 23.7463 6.252C24.5703 6.252 25.2263 6.508 25.7143 7.02C26.2103 7.532 26.4583 8.24 26.4583 9.144C26.4583 9.688 26.3503 10.176 26.1343 10.608C25.9263 11.04 25.6063 11.384 25.1743 11.64C24.7503 11.896 24.2343 12.024 23.6263 12.024C22.8023 12.024 22.1583 11.84 21.6943 11.472C21.2303 11.104 20.9063 10.596 20.7223 9.948C20.5383 9.3 20.4463 8.5 20.4463 7.548C20.4463 4.612 21.4703 3.144 23.5183 3.144C24.3023 3.144 24.9183 3.356 25.3663 3.78C25.8143 4.204 26.0783 4.74 26.1583 5.388H25.1503ZM23.5183 7.176C23.1743 7.176 22.8503 7.248 22.5463 7.392C22.2423 7.528 21.9943 7.74 21.8023 8.028C21.6183 8.308 21.5263 8.652 21.5263 9.06C21.5263 9.668 21.7023 10.164 22.0543 10.548C22.4063 10.924 22.9103 11.112 23.5663 11.112C24.1263 11.112 24.5703 10.94 24.8983 10.596C25.2343 10.244 25.4023 9.772 25.4023 9.18C25.4023 8.556 25.2423 8.068 24.9223 7.716C24.6023 7.356 24.1343 7.176 23.5183 7.176Z" fill="white"/>
</svg>
