<svg width="47" height="10" viewBox="0 0 47 10" fill="none" xmlns="http://www.w3.org/2000/svg">
<path d="M3.576 9.084C3.024 9.084 2.528 8.988 2.088 8.796C1.656 8.596 1.316 8.324 1.068 7.98C0.82 7.628 0.692 7.224 0.684 6.768H1.848C1.888 7.16 2.048 7.492 2.328 7.764C2.616 8.028 3.032 8.16 3.576 8.16C4.096 8.16 4.504 8.032 4.8 7.776C5.104 7.512 5.256 7.176 5.256 6.768C5.256 6.448 5.168 6.188 4.992 5.988C4.816 5.788 4.596 5.636 4.332 5.532C4.068 5.428 3.712 5.316 3.264 5.196C2.712 5.052 2.268 4.908 1.932 4.764C1.604 4.62 1.32 4.396 1.08 4.092C0.848 3.78 0.732 3.364 0.732 2.844C0.732 2.388 0.848 1.984 1.08 1.632C1.312 1.28 1.636 1.008 2.052 0.816C2.476 0.624 2.96 0.528 3.504 0.528C4.288 0.528 4.928 0.724 5.424 1.116C5.928 1.508 6.212 2.028 6.276 2.676H5.076C5.036 2.356 4.868 2.076 4.572 1.836C4.276 1.588 3.884 1.464 3.396 1.464C2.94 1.464 2.568 1.584 2.28 1.824C1.992 2.056 1.848 2.384 1.848 2.808C1.848 3.112 1.932 3.36 2.1 3.552C2.276 3.744 2.488 3.892 2.736 3.996C2.992 4.092 3.348 4.204 3.804 4.332C4.356 4.484 4.8 4.636 5.136 4.788C5.472 4.932 5.76 5.16 6 5.472C6.24 5.776 6.36 6.192 6.36 6.72C6.36 7.128 6.252 7.512 6.036 7.872C5.82 8.232 5.5 8.524 5.076 8.748C4.652 8.972 4.152 9.084 3.576 9.084ZM16.727 2.424L14.675 9H13.547L11.963 3.78L10.379 9H9.25097L7.18697 2.424H8.30297L9.81497 7.944L11.447 2.424H12.563L14.159 7.956L15.647 2.424H16.727ZM23.8107 5.46C23.8107 5.668 23.7987 5.888 23.7747 6.12H18.5187C18.5587 6.768 18.7787 7.276 19.1787 7.644C19.5867 8.004 20.0787 8.184 20.6547 8.184C21.1267 8.184 21.5187 8.076 21.8307 7.86C22.1507 7.636 22.3747 7.34 22.5027 6.972H23.6787C23.5027 7.604 23.1507 8.12 22.6227 8.52C22.0947 8.912 21.4387 9.108 20.6547 9.108C20.0307 9.108 19.4707 8.968 18.9747 8.688C18.4867 8.408 18.1027 8.012 17.8227 7.5C17.5427 6.98 17.4027 6.38 17.4027 5.7C17.4027 5.02 17.5387 4.424 17.8107 3.912C18.0827 3.4 18.4627 3.008 18.9507 2.736C19.4467 2.456 20.0147 2.316 20.6547 2.316C21.2787 2.316 21.8307 2.452 22.3107 2.724C22.7907 2.996 23.1587 3.372 23.4147 3.852C23.6787 4.324 23.8107 4.86 23.8107 5.46ZM22.6827 5.232C22.6827 4.816 22.5907 4.46 22.4067 4.164C22.2227 3.86 21.9707 3.632 21.6507 3.48C21.3387 3.32 20.9907 3.24 20.6067 3.24C20.0547 3.24 19.5827 3.416 19.1907 3.768C18.8067 4.12 18.5867 4.608 18.5307 5.232H22.6827ZM24.8441 5.688C24.8441 5.016 24.9801 4.428 25.2521 3.924C25.5241 3.412 25.8961 3.016 26.3681 2.736C26.8481 2.456 27.3841 2.316 27.9761 2.316C28.4881 2.316 28.9641 2.436 29.4041 2.676C29.8441 2.908 30.1801 3.216 30.4121 3.6V0.12H31.5161V9H30.4121V7.764C30.1961 8.156 29.8761 8.48 29.4521 8.736C29.0281 8.984 28.5321 9.108 27.9641 9.108C27.3801 9.108 26.8481 8.964 26.3681 8.676C25.8961 8.388 25.5241 7.984 25.2521 7.464C24.9801 6.944 24.8441 6.352 24.8441 5.688ZM30.4121 5.7C30.4121 5.204 30.3121 4.772 30.1121 4.404C29.9121 4.036 29.6401 3.756 29.2961 3.564C28.9601 3.364 28.5881 3.264 28.1801 3.264C27.7721 3.264 27.4001 3.36 27.0641 3.552C26.7281 3.744 26.4601 4.024 26.2601 4.392C26.0601 4.76 25.9601 5.192 25.9601 5.688C25.9601 6.192 26.0601 6.632 26.2601 7.008C26.4601 7.376 26.7281 7.66 27.0641 7.86C27.4001 8.052 27.7721 8.148 28.1801 8.148C28.5881 8.148 28.9601 8.052 29.2961 7.86C29.6401 7.66 29.9121 7.376 30.1121 7.008C30.3121 6.632 30.4121 6.196 30.4121 5.7ZM39.3615 5.46C39.3615 5.668 39.3495 5.888 39.3255 6.12H34.0695C34.1095 6.768 34.3295 7.276 34.7295 7.644C35.1375 8.004 35.6295 8.184 36.2055 8.184C36.6775 8.184 37.0695 8.076 37.3815 7.86C37.7015 7.636 37.9255 7.34 38.0535 6.972H39.2295C39.0535 7.604 38.7015 8.12 38.1735 8.52C37.6455 8.912 36.9895 9.108 36.2055 9.108C35.5815 9.108 35.0215 8.968 34.5255 8.688C34.0375 8.408 33.6535 8.012 33.3735 7.5C33.0935 6.98 32.9535 6.38 32.9535 5.7C32.9535 5.02 33.0895 4.424 33.3615 3.912C33.6335 3.4 34.0135 3.008 34.5015 2.736C34.9975 2.456 35.5655 2.316 36.2055 2.316C36.8295 2.316 37.3815 2.452 37.8615 2.724C38.3415 2.996 38.7095 3.372 38.9655 3.852C39.2295 4.324 39.3615 4.86 39.3615 5.46ZM38.2335 5.232C38.2335 4.816 38.1415 4.46 37.9575 4.164C37.7735 3.86 37.5215 3.632 37.2015 3.48C36.8895 3.32 36.5415 3.24 36.1575 3.24C35.6055 3.24 35.1335 3.416 34.7415 3.768C34.3575 4.12 34.1375 4.608 34.0815 5.232H38.2335ZM44.0069 2.304C44.8069 2.304 45.4549 2.548 45.9509 3.036C46.4469 3.516 46.6949 4.212 46.6949 5.124V9H45.6149V5.28C45.6149 4.624 45.4509 4.124 45.1229 3.78C44.7949 3.428 44.3469 3.252 43.7789 3.252C43.2029 3.252 42.7429 3.432 42.3989 3.792C42.0629 4.152 41.8949 4.676 41.8949 5.364V9H40.8029V2.424H41.8949V3.36C42.1109 3.024 42.4029 2.764 42.7709 2.58C43.1469 2.396 43.5589 2.304 44.0069 2.304Z" fill="white"/>
</svg>
